<?xml version="1.0" encoding="utf-8"?>
<!-- Generator: Adobe Illustrator 23.0.3, SVG Export Plug-In . SVG Version: 6.00 Build 0)  -->
<svg version="1.1" id="Layer_1" xmlns="http://www.w3.org/2000/svg" xmlns:xlink="http://www.w3.org/1999/xlink" x="0px" y="0px"
	 viewBox="0 0 236.6 34.1" style="enable-background:new 0 0 236.6 34.1;" xml:space="preserve">
<style type="text/css">
	.st0{fill:url(#SVGID_1_);}
	.st1{fill:url(#SVGID_2_);}
	.st2{fill:#7AB800;}
</style>
<g transform="translate(-104.166 -229.622)">
	<g transform="translate(140.283 238.429)">
		<g transform="translate(0 0)">
			<path d="M0.9,15.2h8.4c0.9,0.1,1.9-0.1,2.7-0.4c0.6-0.4,0.9-1,0.9-1.7c0-0.8-0.4-1.6-1.2-2c-0.6-0.3-1.3-0.4-2-0.3H6.4
				c-2.2,0-3.7-0.4-4.6-1.2C0.6,8.5,0,7,0,5.4c-0.1-2.2,1.2-4.2,3.2-5.1C4.5,0,5.8-0.1,7.2,0h9.1v3.3H8.1c-1.8,0-2.4,0.1-2.8,0.3
				c-0.6,0.3-1,1-0.9,1.7C4.3,6,4.6,6.7,5.2,7C6,7.4,6.9,7.6,7.7,7.4h3c2.7,0,4.2,0.4,5.3,1.5c0.9,1.1,1.4,2.6,1.4,4.1
				c0.1,1.9-0.8,3.6-2.4,4.7c-0.9,0.6-2.1,0.7-4.8,0.7H0.9L0.9,15.2z"/>
			<path d="M30.6,13.2h-7.8c0,0.8,0.3,1.5,1,2c0.7,0.4,1.5,0.5,2.3,0.5h4.5v2.9h-4.9c-1.6,0.2-3.2-0.3-4.5-1.3
				c-1.7-1.4-2.6-3.5-2.4-5.7c-0.1-2.2,0.9-4.3,2.6-5.6c1.2-0.7,2.6-1.1,4.1-1h5.2v2.9h-4.9c-2,0-2.7,0.6-2.9,2.4h7.8L30.6,13.2z"/>
			<path d="M44.2,13.2h-7.8c0,0.8,0.3,1.5,1,2c0.7,0.4,1.5,0.5,2.3,0.5h4.5v2.9h-4.9c-1.6,0.2-3.2-0.3-4.5-1.3
				c-1.7-1.4-2.6-3.5-2.4-5.7C32.2,9.4,33.2,7.3,35,6c1.2-0.7,2.6-1.1,4.1-1h5.2v2.9h-4.9c-2,0-2.7,0.6-2.9,2.4h7.8L44.2,13.2z"/>
			<path d="M55.9,0h3.7v18.5h-6.4c-2.7,0-4-0.4-5.3-1.7c-1.3-1.4-2-3.2-1.9-5.1c-0.1-2.1,0.8-4.2,2.4-5.5c1.2-0.8,2.6-1.2,4-1.2h3.5
				V0z M55.9,7.8h-2.7c-2.2,0-3.5,1.4-3.5,3.8c0,2.4,1.3,3.9,3.5,3.9h2.7V7.8z"/>
			<path d="M73.9,7.8h-4.4c-2.8,0-3.9,1.2-3.9,3.9c-0.1,1.2,0.4,2.5,1.4,3.2c0.9,0.5,1.9,0.8,2.9,0.7h4v2.9h-5.1
				c-2.7,0-4.1-0.5-5.4-1.8c-1.2-1.4-1.8-3.1-1.7-4.9c-0.1-2,0.6-4,2.1-5.4C65,5.4,66.4,5,68.9,5h5.1V7.8z"/>
			<path d="M85.4,10.3c0-1.9-0.6-2.4-2.8-2.4h-6.3V5h6.3c1.2-0.1,2.4,0,3.6,0.3c1.3,0.5,2.2,1.5,2.6,2.8c0.3,0.9,0.4,1.8,0.3,2.7
				v7.6h-7.8c-2.9,0-3.6-0.1-4.4-0.7c-1.8-1.5-2.1-4.2-0.6-6c0.4-0.5,0.9-0.9,1.5-1.1c1-0.2,2-0.3,3-0.3L85.4,10.3z M81.1,13.2
				c-0.4,0-0.8,0-1.2,0.1c-0.5,0.2-0.8,0.6-0.8,1.2c0,0.9,0.5,1.2,2,1.2h4.3v-2.4L81.1,13.2z"/>
			<path d="M97.4,5c2.3,0,3.3,0.2,4.2,1c0.8,0.7,1.1,1.7,1.1,3.7v1.3h-3.6v-0.7c0-1.9-0.6-2.5-2.4-2.5h-1.1v10.6h-3.7V5H97.4z"/>
			<path d="M115.7,13.2h-7.8c0,0.8,0.3,1.5,1,2c0.7,0.4,1.5,0.5,2.3,0.5h4.5v2.9h-4.9c-1.6,0.2-3.2-0.3-4.5-1.3
				c-1.7-1.4-2.6-3.5-2.4-5.7c-0.1-2.2,0.9-4.3,2.6-5.6c1.2-0.7,2.6-1.1,4.1-1h5.2v2.9h-4.9c-2,0-2.7,0.6-2.9,2.4h7.8L115.7,13.2z"
				/>
		</g>
	</g>
	<g transform="translate(257.436 239.03)">
		<g transform="translate(0 0)">
			<path d="M1.1,0.7H0V0h3v0.7H1.9v3H1.1V0.7z"/>
			<path d="M3.5,0h1.1l0.9,2.5h0L6.3,0h1.1v3.7H6.7V1.1h0L5.8,3.7H5.1L4.2,1.1h0v2.6H3.5L3.5,0z"/>
		</g>
	</g>
	
		<linearGradient id="SVGID_1_" gradientUnits="userSpaceOnUse" x1="-220.8049" y1="536.5787" x2="-220.8049" y2="535.7346" gradientTransform="matrix(23.4013 0 0 -34.018 5282.9814 18485.9512)">
		<stop  offset="0" style="stop-color:#7AB800"/>
		<stop  offset="2.400000e-02" style="stop-color:#78B701"/>
		<stop  offset="0.356" style="stop-color:#63AD0D"/>
		<stop  offset="0.684" style="stop-color:#57A715"/>
		<stop  offset="1" style="stop-color:#53A618"/>
	</linearGradient>
	<path class="st0" d="M117.5,263.6c-5-1-9.3-4.4-11.5-9c-2.6-5-2.4-11.1,0.5-15.9c3.7,0.3,7.1,1.9,9.7,4.6c-1.1,1.2-2,2.6-2.7,4
		C110.2,253.8,112,259.9,117.5,263.6z M120.3,241.8c1.6,1.6,3,3.5,4.1,5.5c1,1.9,1.6,4,1.7,6.1c1-2.5,1.6-5.1,1.6-7.8
		c0-7-3.5-13-8.6-16c-2.8,1.7-5.1,4.2-6.5,7.1C115.4,237.7,118.1,239.5,120.3,241.8L120.3,241.8z"/>
	
		<linearGradient id="SVGID_2_" gradientUnits="userSpaceOnUse" x1="-218.9462" y1="532.9154" x2="-218.9462" y2="532.4674" gradientTransform="matrix(20.7471 0 0 -24.518 4666.6431 13319.0098)">
		<stop  offset="0" style="stop-color:#A17700"/>
		<stop  offset="1" style="stop-color:#6D5818"/>
	</linearGradient>
	<path class="st1" d="M132.3,255.1c-2.5,4.7-7,7.9-12.3,8.6c5.6-3.5,9.6-10.1,9.9-17.9c0.1-2.1-0.1-4.2-0.6-6.2c1-0.3,2-0.4,3.1-0.4
		C135.2,244.2,135.2,250.2,132.3,255.1z M122.9,250c-1-1.9-2.3-3.6-4-5c-1.6,1.4-3,3.1-4,5c-2.7,5.2-0.9,10,4,12.7
		C123.8,260,125.6,255.2,122.9,250L122.9,250z"/>
</g>
<g>
	<path class="st2" d="M169.1,27.3V13.8h4c1.2,0,2.2,0.3,3.2,0.8c0.9,0.5,1.6,1.3,2.1,2.3c0.5,1,0.8,2.1,0.8,3.3v0.7
		c0,1.3-0.3,2.4-0.8,3.4c-0.5,1-1.2,1.7-2.2,2.2c-0.9,0.5-2,0.8-3.2,0.8H169.1z M171.4,15.7v9.7h1.5c1.2,0,2.2-0.4,2.8-1.1
		c0.7-0.8,1-1.9,1-3.3v-0.7c0-1.5-0.3-2.6-1-3.3c-0.6-0.8-1.6-1.2-2.8-1.2H171.4z"/>
	<path class="st2" d="M181.2,14.7c0-0.3,0.1-0.6,0.3-0.9c0.2-0.2,0.5-0.3,0.9-0.3c0.4,0,0.7,0.1,0.9,0.3c0.2,0.2,0.3,0.5,0.3,0.9
		c0,0.3-0.1,0.6-0.3,0.8c-0.2,0.2-0.5,0.3-0.9,0.3c-0.4,0-0.7-0.1-0.9-0.3C181.3,15.3,181.2,15,181.2,14.7z M183.6,27.3h-2.2v-10
		h2.2V27.3z"/>
	<path class="st2" d="M185.7,22.2c0-1.6,0.4-2.8,1.1-3.7c0.7-0.9,1.7-1.4,2.9-1.4c1.1,0,2,0.4,2.7,1.2l0.1-1h2V27
		c0,1.3-0.4,2.3-1.2,3.1c-0.8,0.8-1.9,1.1-3.3,1.1c-0.7,0-1.4-0.2-2.1-0.5c-0.7-0.3-1.2-0.7-1.6-1.2l1.1-1.3
		c0.7,0.8,1.5,1.2,2.6,1.2c0.7,0,1.3-0.2,1.8-0.6c0.4-0.4,0.6-1,0.6-1.8v-0.7c-0.6,0.7-1.5,1.1-2.6,1.1c-1.2,0-2.1-0.5-2.9-1.4
		C186,25.1,185.7,23.8,185.7,22.2z M187.9,22.4c0,1,0.2,1.8,0.6,2.4c0.4,0.6,1,0.9,1.7,0.9c0.9,0,1.6-0.4,2-1.2v-4.4
		c-0.4-0.8-1.1-1.1-2-1.1c-0.7,0-1.3,0.3-1.7,0.9C188.1,20.4,187.9,21.3,187.9,22.4z"/>
	<path class="st2" d="M196.8,14.7c0-0.3,0.1-0.6,0.3-0.9c0.2-0.2,0.5-0.3,0.9-0.3c0.4,0,0.7,0.1,0.9,0.3c0.2,0.2,0.3,0.5,0.3,0.9
		c0,0.3-0.1,0.6-0.3,0.8c-0.2,0.2-0.5,0.3-0.9,0.3c-0.4,0-0.7-0.1-0.9-0.3C196.9,15.3,196.8,15,196.8,14.7z M199.2,27.3h-2.2v-10
		h2.2V27.3z"/>
	<path class="st2" d="M205.7,25.7c0.6,0,1-0.2,1.4-0.5c0.4-0.3,0.6-0.7,0.6-1.2h2.1c0,0.6-0.2,1.2-0.6,1.7c-0.4,0.5-0.9,1-1.5,1.3
		c-0.6,0.3-1.3,0.5-2,0.5c-1.4,0-2.5-0.5-3.3-1.4c-0.8-0.9-1.2-2.2-1.2-3.8v-0.2c0-1.5,0.4-2.7,1.2-3.7c0.8-0.9,1.9-1.4,3.3-1.4
		c1.2,0,2.2,0.3,2.9,1c0.7,0.7,1.1,1.6,1.2,2.7h-2.1c0-0.6-0.2-1-0.6-1.4c-0.4-0.4-0.8-0.6-1.4-0.6c-0.7,0-1.3,0.3-1.7,0.8
		c-0.4,0.5-0.6,1.3-0.6,2.4v0.4c0,1.1,0.2,1.9,0.6,2.4C204.4,25.4,205,25.7,205.7,25.7z"/>
	<path class="st2" d="M217.5,27.3c-0.1-0.2-0.2-0.5-0.3-0.9c-0.7,0.7-1.6,1.1-2.6,1.1c-1,0-1.8-0.3-2.5-0.9c-0.6-0.6-1-1.3-1-2.1
		c0-1.1,0.4-1.9,1.2-2.5s1.9-0.9,3.4-0.9h1.4v-0.7c0-0.5-0.1-0.9-0.4-1.2c-0.3-0.3-0.7-0.5-1.3-0.5c-0.5,0-0.9,0.1-1.3,0.4
		c-0.3,0.3-0.5,0.6-0.5,1h-2.2c0-0.5,0.2-1.1,0.5-1.5c0.4-0.5,0.9-0.9,1.5-1.1c0.6-0.3,1.3-0.4,2.1-0.4c1.2,0,2.1,0.3,2.8,0.9
		c0.7,0.6,1.1,1.4,1.1,2.5V25c0,0.9,0.1,1.6,0.4,2.2v0.2H217.5z M215,25.7c0.4,0,0.9-0.1,1.3-0.3c0.4-0.2,0.7-0.5,0.9-0.9v-1.9h-1.2
		c-0.8,0-1.5,0.1-1.9,0.4c-0.4,0.3-0.6,0.7-0.6,1.2c0,0.4,0.1,0.8,0.4,1C214.2,25.5,214.5,25.7,215,25.7z"/>
	<path class="st2" d="M227,19.3c-0.3,0-0.6-0.1-0.9-0.1c-1,0-1.7,0.4-2.1,1.2v6.8h-2.2v-10h2.1l0.1,1.1c0.5-0.9,1.3-1.3,2.3-1.3
		c0.3,0,0.6,0,0.8,0.1L227,19.3z"/>
	<path class="st2" d="M232.6,27.5c-1.4,0-2.6-0.4-3.5-1.3c-0.9-0.9-1.3-2.1-1.3-3.6v-0.3c0-1,0.2-1.9,0.6-2.7
		c0.4-0.8,0.9-1.4,1.6-1.8c0.7-0.4,1.5-0.7,2.3-0.7c1.4,0,2.4,0.4,3.2,1.3c0.7,0.9,1.1,2.1,1.1,3.7V23h-6.5c0.1,0.8,0.3,1.5,0.8,2
		s1.1,0.7,1.8,0.7c1,0,1.9-0.4,2.5-1.2l1.2,1.2c-0.4,0.6-0.9,1.1-1.6,1.4C234.2,27.3,233.5,27.5,232.6,27.5z M232.4,18.9
		c-0.6,0-1.1,0.2-1.5,0.6c-0.4,0.4-0.6,1-0.7,1.8h4.3v-0.2c0-0.8-0.2-1.3-0.6-1.7C233.5,19.1,233,18.9,232.4,18.9z"/>
</g>
</svg>
